# xmcd CD database file generated by Grip 3.3.1
# 
# Track frame offsets:
#       150
#       53166
#       96680
#       121651
#       161471
#       189512
#       201213
# 
# Disc length: 3244 seconds
# 
# Revision: 1
# Processed by: cddbd v1.5.2PL0 Copyright (c) Steve Scherf et al.
# Submitted via: Grip 3.3.1
# 
DISCID=5b0caa07
DTITLE=Pretre, Freni, live Scala 16.2.67 - Gounod - faust cd2
DYEAR=1967
DGENRE=Classical
TTITLE0=Act III - Alerte! la voila!... "Il était un roi de Thule"... Ah!
TTITLE0=Je ris de me voir (Jewel Song) ( Méphistophélès, Marguerite)
TTITLE1=Act III - Que vois-je, Seigneur Dieu! (Marthe)
TTITLE2=Act III - It était temps! Sous le feuillage sombre (Méphistophé
TTITLE2=lès)
TTITLE3=Act III - O nuit d'amour! Ciel radieux! (Faust, Marguerite)
TTITLE4=Act IV - Elles ne sont plus là! (Marguerite)
TTITLE5=Act IV - Marguerite!... Siebel! (Siebel, Marguerite)
TTITLE6=Act IV - Seigneur, daignez permettre à votre humble servante (Ma
TTITLE6=rguerite)
EXTD=
EXTT0=
EXTT1=
EXTT2=
EXTT3=
EXTT4=
EXTT5=
EXTT6=
PLAYORDER=
